<?xml version="1.0" encoding="UTF-8" standalone="no"?>
<!-- Created with Inkscape (http://www.inkscape.org/) -->

<svg
   width="81.86264mm"
   height="62.315407mm"
   viewBox="0 0 81.86264 62.315407"
   version="1.1"
   id="svg5"
   xml:space="preserve"
   xmlns:inkscape="http://www.inkscape.org/namespaces/inkscape"
   xmlns:sodipodi="http://sodipodi.sourceforge.net/DTD/sodipodi-0.dtd"
   xmlns="http://www.w3.org/2000/svg"
   xmlns:svg="http://www.w3.org/2000/svg"><sodipodi:namedview
     id="namedview7"
     pagecolor="#ffffff"
     bordercolor="#999999"
     borderopacity="1"
     inkscape:showpageshadow="0"
     inkscape:pageopacity="0"
     inkscape:pagecheckerboard="0"
     inkscape:deskcolor="#d1d1d1"
     inkscape:document-units="mm"
     showgrid="false" /><defs
     id="defs2" /><g
     inkscape:label="Layer 1"
     inkscape:groupmode="layer"
     id="layer1"
     transform="translate(-51.090059,-81.685079)"><path
       id="path302"
       style="fill:none;fill-opacity:1;stroke:#f9b600;stroke-width:0.264583;stroke-opacity:1"
       d="m 104.059,81.821932 c -1.92575,-0.0443 -3.24152,0.22742 -5.256517,0.95912 -1.99385,0.724 -2.02616,0.72694 -3.96875,0.33538 -2.20449,-0.44435 -7.59706,-0.49972 -10.32495,-0.10594 -1.08648,0.15684 -2.1712,0.51755 -2.85513,0.9493 -1.09602,0.69188 -1.12091,0.69428 -4.06849,0.44286 -6.954995,-0.59325 -11.306715,0.6235 -16.993275,4.75165 -1.45297,1.05478 -3.34326,2.3308 -4.20078,2.83549 -2.04962,1.20632 -3.50602,2.54633 -4.20904,3.87263 -0.44753,0.84428 -0.58567,1.61841 -0.64027,3.58996 -0.03829,1.382448 -0.12539,3.942288 -0.19379,5.688538 l -0.12454,3.175 1.07383,2.38125 c 2.48082,5.50179 3.13443,6.66518 4.71651,8.39174 1.86649,2.03695 3.55797,2.99122 4.86741,2.74557 2.02799,-0.38046 3.60959,-3.56332 3.60959,-7.26416 0,-1.04878 0.1302,-1.3851 0.77618,-2.00401 0.42699,-0.40908 1.03434,-1.37976 1.34979,-2.15698 0.31544,-0.7772 0.78829,-1.48146 1.05059,-1.56476 0.26229,-0.0835 1.29206,-0.12437 2.28823,-0.0915 0.99618,0.0329 2.16845,-0.0209 2.60501,-0.11988 0.71486,-0.16207 0.85568,-0.0791 1.41645,0.83509 0.785455,1.28045 1.574025,1.7443 3.872625,2.27738 2.14302,0.49701 2.43441,0.72344 4.10415,3.19102 1.35434,2.00148 3.06408,3.70087 4.13153,4.10672 0.8704,0.33093 2.4073,0.32391 2.61483,-0.0119 0.28044,-0.45376 0.8061,-0.29538 1.97611,0.59531 2.09198,1.59256 3.01011,2.04139 4.18217,2.04639 0.95978,0.004 1.16877,0.10397 1.38131,0.663 0.43669,1.14857 1.08404,5.76964 0.91571,6.53604 -0.38758,1.76466 -3.83073,3.60173 -8.12974,4.33772 -2.9516,0.50531 -3.63382,0.99415 -3.63182,2.60294 10e-4,1.39569 0.6904,2.49554 2.41949,3.8623 2.81234,2.22302 6.07658,3.44222 10.54406,3.93826 5.674987,0.63011 12.220537,0.0528 14.862137,-1.31103 0.33886,-0.17494 0.87657,-0.55539 1.19528,-0.84543 0.31871,-0.29004 1.44658,-0.81929 2.50631,-1.17615 2.553,-0.85972 6.73527,-3.02627 8.10441,-4.1982 2.1059,-1.80258 3.34031,-5.2085 4.02198,-11.09803 0.27296,-2.3583 0.41706,-2.81835 1.3286,-4.23333 1.58731,-2.46398 1.65708,-2.77953 1.19734,-5.4436 -0.47485,-2.75158 -1.03799,-4.27006 -2.83497,-7.64708 -1.49879,-2.81665 -2.55517,-4.42451 -3.84421,-5.85132 -0.86789,-0.96065 -0.87405,-0.98596 -0.56844,-2.309928 0.2567,-1.11208 0.23427,-1.64377 -0.13332,-3.14038 -0.67356,-2.74229 -1.65272,-4.47496 -3.79564,-6.71794 -4.29416,-4.49464 -9.49555,-7.12751 -15.16031,-7.67446 -0.82593,-0.0797 -1.53573,-0.12992 -2.17765,-0.1447 z m 0.51522,1.27021 c 0.55445,0.014 0.3388,0.10671 -0.28061,0.34623 -1.85784,0.71843 -4.780947,2.29854 -6.523107,3.52588 -2.21346,1.55939 -5.24563,4.48064 -6.38411,6.15105 -0.49065,0.71991 -0.98814,1.30922 -1.10587,1.30948 -0.1178,2.8e-4 -0.12916,-0.13688 -0.0253,-0.30489 0.11575,-0.18733 0.0724,-0.23358 -0.11162,-0.11989 -0.22228,0.13735 -0.21831,0.31629 0.015,0.68988 0.30054,0.48123 0.33634,0.47137 0.7798,-0.20464 0.25564,-0.38969 1.43162,-1.64218 2.61327,-2.78329 4.78744,-4.62317 8.805877,-6.77078 13.479277,-7.20421 l 1.7198,-0.15917 -2.38125,0.82579 c -1.30968,0.45421 -2.64497,0.99702 -2.96726,1.20665 -0.70637,0.45925 -0.96667,0.48793 -0.71366,0.0786 0.10288,-0.16647 -0.16862,-0.0921 -0.60358,0.16484 l -0.79065,0.46716 0.55294,0.57981 c 0.30429,0.3191 0.64345,0.53549 0.75344,0.48059 0.10999,-0.0549 0.60253,0.0459 1.09451,0.22376 l 0.89452,0.32349 -0.73587,0.61909 c -0.91458,0.76959 -1.37344,0.82171 -0.55966,0.0636 0.3281,-0.30567 0.5278,-0.62459 0.4439,-0.70849 -0.0839,-0.0839 -0.33828,0.0767 -0.56585,0.35709 -0.40206,0.49543 -0.41046,0.49302 -0.28681,-0.0858 0.0726,-0.33968 0.019,-0.52825 -0.12506,-0.43925 -0.13895,0.0859 -0.2335,0.35406 -0.2098,0.59583 0.0233,0.24177 0.0202,0.49874 -0.008,0.57154 -0.17739,0.46271 -0.19876,1.05833 -0.0377,1.05833 0.10483,0 0.42188,-0.17495 0.70435,-0.38861 0.61924,-0.46834 1.01296,-0.52047 0.75293,-0.0997 -0.11791,0.19081 -0.0725,0.23377 0.12092,0.1142 0.1707,-0.1053 0.24897,-0.29009 0.17467,-0.41031 -0.0743,-0.12022 0.0528,-0.29027 0.28215,-0.37827 0.60211,-0.2311 0.82932,-0.1894 0.41135,0.0755 -0.24811,0.15723 -0.12553,0.22621 0.39687,0.22221 0.41612,-0.003 0.6072,-0.0576 0.4253,-0.12144 -0.1819,-0.0638 -0.33073,-0.22102 -0.33073,-0.34985 0,-0.1288 0.19813,-0.15853 0.44028,-0.0656 0.28218,0.1083 0.37577,0.0648 0.26097,-0.12092 -0.2406,-0.38931 2.16665,-1.07231 5.00124,-1.41904 3.44386,-0.42125 7.47138,0.4037 8.58863,1.75907 0.36678,0.44494 0.34197,0.46394 -0.37311,0.28577 -0.91902,-0.22899 -4.92218,0.0824 -4.92218,0.38292 0,0.11626 0.68462,0.28227 1.52136,0.36897 3.89944,0.40397 6.14847,1.37605 7.20937,3.11609 0.72605,1.19083 0.67338,1.27873 -0.42891,0.71675 -1.15728,-0.59001 -3.52257,-1.10935 -4.52634,-0.99374 -0.58023,0.0668 -0.25331,0.26454 1.59164,0.96222 2.3836,0.90139 4.42246,2.427 4.42246,3.30884 0,0.3512 -0.22493,0.2891 -1.20147,-0.33021 -2.17147,-1.3771 -5.04687,-2.00088 -9.11728,-1.97818 -4.3223,0.0241 -6.51038,0.54184 -10.48876,2.48254 -6.072427,2.962198 -10.772367,7.723308 -12.933577,13.101528 -0.57182,1.423 -0.78006,2.46503 -0.89813,4.49791 l -0.15297,2.64584 -0.84336,0.0816 c -1.12146,0.1086 -1.73649,-0.82404 -1.8836,-2.8577 -0.14869,-2.05563 1.01624,-7.33483 1.54616,-7.00733 0.113,0.0699 0.14975,-0.0864 0.0816,-0.34675 -0.0753,-0.28797 0.19355,-0.80527 0.68626,-1.32085 0.44546,-0.46612 0.80543,-0.99707 0.79943,-1.18028 -0.006,-0.18323 -0.19422,0.004 -0.41806,0.41754 -0.22385,0.41304 -0.4707,0.68737 -0.5488,0.60927 -0.078,-0.078 0.15787,-0.67818 0.524,-1.33326 0.45405,-0.81234 0.56898,-1.23705 0.36121,-1.33635 -0.22169,-0.10598 -0.21445,-0.18806 0.0274,-0.30076 0.18278,-0.0852 0.25997,-0.27195 0.17157,-0.41496 -0.25155,-0.40702 -3.2237,5.65946 -3.81527,7.78712 -0.29219,1.0509 -0.54114,2.7742 -0.55294,3.82923 -0.0118,1.05502 -0.0503,1.91823 -0.0853,1.91823 -0.28292,0 -2.12368,-3.13714 -2.42155,-4.12688 -0.54263,-1.80304 -0.47292,-5.19774 0.15709,-7.66103 1.49076,-5.828798 7.11524,-14.582348 12.01322,-18.696018 2.76336,-2.32087 4.22588,-2.91673 7.430037,-3.02876 0.96636,-0.0338 1.57625,-0.0539 1.90893,-0.0455 z m -13.433287,0.49299 c 0.56024,-0.006 0.48921,0.0944 -0.52917,0.75396 -0.64695,0.41897 -1.82142,1.42584 -2.61017,2.23707 -0.78876,0.81123 -1.52487,1.41871 -1.63556,1.35031 -0.23872,-0.14753 -0.49572,0.22202 -0.62632,0.9002 -0.0518,0.26886 -0.50503,1.13255 -1.00718,1.91927 -1.07333,1.68158 -2.38461,4.22067 -2.24947,4.3558 0.052,0.052 0.78051,-0.94828 1.61902,-2.2226 1.71117,-2.60057 5.05463,-6.25153 6.65644,-7.26881 1.19111,-0.75646 3.95316,-1.62624 4.36201,-1.37356 0.49338,0.30493 0.27902,0.58332 -1.72651,2.24224 -5.59793,4.63046 -9.79734,12.15038 -11.65613,20.872108 -0.67992,3.19019 -1.69565,4.26643 -2.6505,2.80913 -0.59983,-0.91545 -0.37595,-6.35283 0.36742,-8.92193 0.28422,-0.98227 0.46686,-1.785938 0.40566,-1.785938 -0.0612,0 -0.40805,0.671708 -0.77101,1.492418 -0.95964,2.16991 -1.59145,6.32905 -1.26297,8.31525 v 5.2e-4 c 0.14271,0.86314 0.19398,1.56508 0.11368,1.55908 -0.44831,-0.0318 -1.79608,-0.78129 -2.17919,-1.21182 -0.244975,-0.2753 -0.758985,-1.57151 -1.142045,-2.88044 -0.90454,-3.09086 -0.95707,-6.891398 -0.13901,-10.052618 1.380525,-5.33477 5.710545,-11.43509 8.731775,-12.30157 l 0.894,-0.25632 -0.90589,0.93483 c -0.54691,0.56426 -1.08354,0.88822 -1.35392,0.81752 -0.28017,-0.0733 -0.83238,0.29363 -1.47382,0.97875 -1.54663,1.65197 -1.90794,2.31708 -1.78491,3.28921 0.0603,0.47621 0.0206,0.81102 -0.0884,0.74362 -0.10899,-0.0674 -0.21698,0.1251 -0.23978,0.42788 l -0.0413,0.55036 0.38344,-0.54726 c 0.21117,-0.3016 0.30378,-0.75478 0.20618,-1.00924 -0.1346,-0.35074 -0.0869,-0.40716 0.19844,-0.23513 0.31758,0.19144 0.32103,0.1588 0.0222,-0.2098 -0.35983,-0.44387 -0.27324,-0.75861 0.43409,-1.58234 0.31883,-0.3713 0.47979,-0.39996 0.81958,-0.14521 0.35431,0.26561 0.36913,0.25705 0.092,-0.0537 -0.49635,-0.55664 -0.39834,-0.84897 0.18086,-0.53898 0.64556,0.34521 1.0784,0.35236 0.54674,0.009 -0.26454,-0.17094 -0.28662,-0.25745 -0.0661,-0.26045 0.1819,-0.002 0.33072,-0.11949 0.33072,-0.26045 0,-0.1409 -0.20836,-0.18023 -0.46302,-0.0873 -0.40556,0.14791 -0.39816,0.0953 0.0594,-0.4253 0.28732,-0.3269 0.56555,-0.46558 0.61805,-0.30799 0.0525,0.1576 0.23414,0.20106 0.4036,0.0966 0.16947,-0.10442 0.11022,0.11308 -0.13177,0.48317 -0.28789,0.44032 -0.35799,0.80248 -0.20257,1.048 0.19674,0.31093 0.23833,0.30153 0.24133,-0.0553 0.002,-0.23685 0.1735,-0.57093 0.38034,-0.74259 0.30992,-0.25723 0.35483,-0.20494 0.25683,0.29818 l -0.11886,0.6103 0.26355,-0.59532 c 0.25614,-0.57868 0.54818,-0.71305 1.31258,-0.60564 0.2778,0.039 0.25886,-0.0595 -0.0754,-0.39378 -0.59424,-0.59424 -0.12124,-1.17798 0.84491,-1.04283 0.39164,0.0548 0.56327,0.0357 0.38137,-0.0424 -0.58404,-0.25075 -0.35712,-0.5592 0.73277,-0.99529 1.52038,-0.60833 1.80526,-0.52833 0.99632,0.2806 -0.5774,0.57741 -0.77785,0.64727 -1.09761,0.38189 -0.32448,-0.26933 -0.36985,-0.24177 -0.26406,0.16278 0.0769,0.29417 -0.20523,0.90426 -0.71159,1.53686 -1.64076,2.04984 -2.93794,4.13187 -3.72329,5.97741 -0.88969,2.09073 -0.85394,2.76366 0.0522,0.98392 1.4539,-2.85562 5.86091,-8.42636 6.66627,-8.42636 0.15139,0 0.0841,0.21124 -0.14935,0.46922 -0.26057,0.28796 -0.3401,0.6055 -0.20619,0.82217 0.13815,0.22352 0.27921,0.25384 0.38499,0.0827 0.0918,-0.14863 0.077,-0.32059 -0.0331,-0.38189 -0.11004,-0.0614 -0.075,-0.0845 0.078,-0.0512 0.153,0.0333 0.27159,-0.24437 0.26459,-0.61702 -0.0109,-0.54205 0.22465,-0.79967 1.17718,-1.28726 0.65484,-0.33521 1.48171,-0.6125 1.83762,-0.6165 z m -1.82418,0.91933 c -0.0416,0.002 -0.0939,0.0159 -0.15761,0.0403 -0.21009,0.0806 -0.31615,0.25317 -0.23565,0.38344 0.20278,0.32811 0.29971,0.29769 0.47026,-0.14676 0.0736,-0.19182 0.0478,-0.28405 -0.077,-0.27698 z m -6.19342,0.21032 c -0.0413,-0.004 -0.12892,0.0232 -0.2651,0.0754 -0.23886,0.0917 -0.43408,0.27312 -0.43408,0.40307 0,0.34024 0.15329,0.29221 0.53433,-0.16691 0.17475,-0.21056 0.23373,-0.30468 0.16485,-0.31161 z m 22.451857,0.19379 c -0.14552,0 -0.44318,0.11525 -0.66146,0.25631 -0.21829,0.14107 -0.27782,0.25632 -0.13229,0.25632 0.14552,0 0.44318,-0.11525 0.66146,-0.25632 0.21829,-0.14106 0.27782,-0.25631 0.13229,-0.25631 z m -1.38596,0.41599 c -0.0915,-0.0119 -0.31713,0.047 -0.72141,0.17105 -0.63849,0.19597 -0.83843,0.36012 -0.61133,0.50126 v -5.2e-4 c 0.18555,0.1153 0.37753,0.0937 0.42633,-0.0481 0.0488,-0.14172 0.18416,-0.19871 0.30076,-0.12661 0.1166,0.0721 0.3517,-0.0371 0.52245,-0.24288 0.13231,-0.15941 0.17474,-0.24236 0.0832,-0.25425 z m -31.318502,0.63407 c 0.41465,0 0.55758,0.16558 0.55758,0.64596 0,0.35522 0.13138,0.72722 0.29249,0.82682 0.19345,0.11953 0.23728,0.005 0.12868,-0.33745 -0.11027,-0.34746 -0.04161,-0.5178 0.20877,-0.5178 0.32102,0 0.32169,0.14744 0.0041,1.04749 -0.20326,0.57612 -0.36948,1.39681 -0.36948,1.82366 0,0.42686 -0.10184,0.71303 -0.22634,0.63613 -0.12445,-0.0769 -0.16999,0.15428 -0.10129,0.51367 0.1352,0.70726 0.59221,0.90501 0.59221,0.25631 0,-0.21828 0.0893,-0.39677 0.19844,-0.39687 0.10914,-1e-4 0.21729,-0.32425 0.24029,-0.71986 0.02297,-0.39561 0.17244,-0.76267 0.33228,-0.81597 0.16031,-0.0533 0.22898,-0.19665 0.15348,-0.31884 -0.17327,-0.28035 0.40729,-1.58492 0.70539,-1.58492 0.122155,0 0.192455,-0.0893 0.156055,-0.19843 -0.06,-0.17995 0.14461,-0.33073 0.44855,-0.33073 0.0647,0 -0.18309,0.65661 -0.55035,1.45882 -0.785645,1.71609 -0.696695,2.59709 0.10645,1.05472 0.3031,-0.58209 0.91483,-1.47505 1.35961,-1.98438 0.67133,-0.76876 0.5184,-0.34187 -0.90176,2.51355 -2.268595,4.56137 -2.780385,6.58591 -3.009625,11.906248 -0.18792,4.36138 -0.36036,5.06768 -1.41645,5.80739 -1.13294,0.79355 -1.26194,0.58328 -1.26194,-2.05517 0,-2.65082 -0.41466,-4.47375 -1.5074,-6.631638 -0.76619,-1.51301 -2.71375,-3.67963 -4.09433,-4.55476 -1.39339,-0.88326 -3.96528,-1.69162 -5.43636,-1.70842 l -1.26504,-0.0145 1.32292,-0.55139 c 2.47879,-1.03295 4.83867,-0.54755 7.26932,1.495 0.65121,0.54722 1.5284,1.46413 1.94976,2.03709 0.99722,1.35602 1.22411,1.10528 0.34984,-0.38654 -1.00179,-1.70945 -3.64918,-4.04883 -5.20898,-4.60282 -1.46058,-0.51875 -1.61977,-0.73956 -0.6997,-0.97048 1.3352,-0.33512 2.6728,0.35845 4.87257,2.52646 0.76398,0.75296 1.38906,1.22988 1.38906,1.05988 0,-0.54372 -3.34099,-3.73797 -4.40128,-4.20801 l -1.02267,-0.4532 0.75086,-0.0951 c 0.98568,-0.12451 2.48247,0.91725 3.94446,2.74557 0.61892,0.774 1.22022,1.41307 1.33635,1.42007 0.41777,0.0248 -1.37304,-2.26753 -2.92799,-3.74758 l -1.5875,-1.51102 0.89659,-0.29558 c 0.77298,-0.25511 1.02345,-0.21755 1.81694,0.27285 0.5062,0.31285 1.331,1.0486 1.83297,1.63504 0.50196,0.58644 1.0399,0.98742 1.19527,0.89142 0.18451,-0.11403 0.28267,0.24418 0.28267,1.03198 0,0.74265 -0.11898,1.20612 -0.30902,1.20612 -0.1698,0 -0.2335,0.075 -0.1416,0.16692 0.0919,0.0919 0.04785,0.38955 -0.09767,0.66146 -0.14548,0.27191 -0.16481,0.49454 -0.0434,0.49454 0.40376,0 0.88267,-1.81074 0.81907,-3.09697 -0.0402,-0.81354 -0.32062,-1.70815 -0.78135,-2.4939 -0.63794,-1.0884 -0.66222,-1.21079 -0.21756,-1.09451 0.27548,0.072 0.43575,0.23637 0.35605,0.36535 -0.07971,0.12897 -0.02294,0.23461 0.12661,0.23461 0.14954,0 0.19625,0.19813 0.10335,0.44029 -0.1136,0.29607 -0.06757,0.37771 0.14056,0.24908 0.17025,-0.10523 0.30954,-0.49669 0.30954,-0.86972 0,-0.57742 0.05953,-0.62833 0.40256,-0.34365 0.33691,0.2796 0.37602,0.26288 0.23668,-0.10025 -0.12203,-0.31799 -0.01751,-0.43408 0.39068,-0.43408 z m 10.414355,0.0413 c 0.11265,-0.008 0.1974,0.0427 0.1974,0.17312 0,0.14208 -0.18865,0.33069 -0.41909,0.41909 -0.25769,0.0989 -0.3786,0.0393 -0.3142,-0.15399 0.0824,-0.2472 0.34813,-0.42456 0.53589,-0.43822 z m 18.411787,0.30799 c -0.0806,-0.004 -0.26903,0.063 -0.48731,0.17984 -0.29103,0.15576 -0.52916,0.34268 -0.52916,0.41548 0,0.0728 0.23813,0.005 0.52916,-0.1509 0.29104,-0.15576 0.52917,-0.34268 0.52917,-0.41548 0,-0.0182 -0.015,-0.0275 -0.0419,-0.0289 z m -28.674222,0.0377 c -0.04784,-0.0178 -0.08164,0.13384 -0.08164,0.40669 0,0.36383 0.05992,0.51263 0.13332,0.33073 0.0734,-0.1819 0.0734,-0.47956 0,-0.66146 -0.01834,-0.0455 -0.03573,-0.07 -0.05168,-0.076 z m -3.50986,0.30644 c 0.16442,0.0126 0.56549,0.34552 1.14153,1.04851 0.60151,0.73407 0.89356,1.30269 0.74569,1.45056 -0.14788,0.14787 -0.62579,-0.26972 -1.21956,-1.06505 -0.69968,-0.93719 -0.87905,-1.45027 -0.66766,-1.43402 z m 37.568772,0.004 c 0.0935,0.0203 -0.19835,0.21013 -0.9524,0.58033 -0.90411,0.44388 -1.40577,0.822 -1.19062,0.8971 0.20448,0.0713 0.0494,0.13188 -0.34469,0.13488 -1.20049,0.009 -1.08141,-0.26362 0.38086,-0.8723 1.22982,-0.51192 1.98662,-0.76617 2.10685,-0.74001 z m -4.81366,0.0961 c 0.14552,0 0.26458,0.11215 0.26458,0.24908 0,0.13693 -0.11906,0.32248 -0.26458,0.41238 -0.14552,0.0899 -0.26459,-0.0222 -0.26459,-0.24908 0,-0.22687 0.11907,-0.41238 0.26459,-0.41238 z m -35.329632,0.16898 c -0.07906,0.004 -0.16588,0.0136 -0.25683,0.031 -0.3638,0.0695 -0.66146,0.17209 -0.66146,0.22789 0,0.0558 0.29766,0.10129 0.66146,0.10129 0.36381,0 0.66146,-0.10256 0.66146,-0.2279 0,-0.094 -0.16743,-0.14291 -0.40463,-0.13229 z m 5.49837,0.0935 c -0.23182,-0.0393 -0.81304,0.92353 -0.66714,1.15962 0.08059,0.1304 0.29858,-0.0469 0.48421,-0.39378 0.18564,-0.34686 0.28668,-0.68174 0.22428,-0.74414 -0.01204,-0.012 -0.02589,-0.0191 -0.04135,-0.0217 z m 27.879442,0.26665 c -0.23609,0 -0.429427,0.17859 -0.429427,0.39687 0,0.21828 0.0448,0.39688 0.0997,0.39688 0.0549,0 0.248267,-0.1786 0.429427,-0.39688 0.26976,-0.32507 0.25185,-0.39687 -0.0997,-0.39687 z m -26.872262,0.26458 c -0.15411,0 -0.28009,0.11906 -0.28009,0.26458 0,0.14552 0.05259,0.26459 0.11679,0.26459 0.06417,0 0.19019,-0.11907 0.28009,-0.26459 0.08994,-0.14552 0.03731,-0.26458 -0.11679,-0.26458 z m -5.77329,0.39688 c -0.31236,-0.023 -0.50187,0.0647 -0.42117,0.19533 0.08073,0.1306 0.31373,0.1737 0.51728,0.0956 0.20356,-0.0781 0.37001,-0.0267 0.37001,0.11421 0,0.14095 0.06961,0.25631 0.15451,0.25631 0.44799,0 -0.13941,-0.62605 -0.62063,-0.66145 z m 15.311215,0.12247 c -0.0823,0.0145 -0.20181,0.12161 -0.30334,0.28215 -0.1768,0.27957 -0.24712,0.29316 -0.25012,0.0481 -0.003,-0.27849 -0.0718,-0.27849 -0.3731,0 -0.20301,0.18764 -0.30721,0.44325 -0.23151,0.56792 0.0757,0.12468 0.23973,0.0652 0.36483,-0.13229 0.18781,-0.29639 0.22851,-0.29258 0.23151,0.0222 0.003,0.27156 0.11206,0.2337 0.37931,-0.13177 0.20639,-0.28225 0.31891,-0.5694 0.25011,-0.6382 -0.0172,-0.0172 -0.0403,-0.0229 -0.0677,-0.0181 z m 3.28817,0.11524 c 0.0269,-0.006 0.0515,-7.4e-4 0.0718,0.0196 0.0815,0.0815 -5e-5,0.29543 -0.18087,0.47491 -0.26131,0.25936 -0.29138,0.22877 -0.14779,-0.14831 0.0745,-0.19569 0.17619,-0.32707 0.25683,-0.34623 z m 12.47314,0.0357 c -0.0292,-0.003 -0.0884,0.005 -0.17932,0.0264 -0.99692,0.22999 -1.89315,0.87496 -1.68465,1.21233 0.11797,0.19088 0.0356,0.24084 -0.22841,0.13952 -0.40988,-0.15729 -1.53039,0.78195 -1.52239,1.2759 0.002,0.13614 0.11938,0.0689 0.26045,-0.14935 0.21923,-0.33922 0.25745,-0.32955 0.26045,0.0661 0.002,0.25466 0.0711,0.46302 0.15296,0.46302 0.0818,0 0.11477,-0.20836 0.0729,-0.46302 -0.10445,-0.6349 0.24891,-1.13005 0.68626,-0.96222 0.1989,0.0763 0.43978,0.0113 0.53588,-0.14418 0.0961,-0.15544 0.29373,-0.28267 0.43925,-0.28267 0.14552,0 0.20368,0.0994 0.12868,0.22066 -0.075,0.12128 0.0552,0.22066 0.28939,0.22066 0.33927,0 0.31197,-0.0922 -0.13385,-0.4532 -0.55797,-0.45182 -0.55654,-0.45439 0.42272,-0.87488 0.40506,-0.17396 0.58731,-0.28557 0.49971,-0.29508 z m -29.820925,0.12372 c -0.14095,0 -0.25632,0.1786 -0.25632,0.39688 0,0.21829 0.04667,0.39687 0.10387,0.39687 0.0572,0 0.17252,-0.17858 0.25632,-0.39687 0.08377,-0.21828 0.03708,-0.39688 -0.10387,-0.39688 z m 30.678755,0.29921 c -0.0317,-0.0168 -0.17193,0.052 -0.44184,0.19585 -0.32742,0.17447 -0.59531,0.37268 -0.59531,0.44028 0,0.28025 0.48924,0.0926 0.82734,-0.31729 0.16464,-0.19957 0.24154,-0.30204 0.20981,-0.31884 z m -19.67323,0.0734 c -0.0715,0.0117 -0.17094,0.0647 -0.28164,0.15658 -0.21828,0.18116 -0.39687,0.44824 -0.39687,0.59376 0,0.14758 0.17548,0.11913 0.39687,-0.0646 0.21828,-0.18116 0.39688,-0.44824 0.39688,-0.59376 0,-0.0738 -0.0437,-0.10366 -0.11524,-0.092 z m 28.138857,0.45372 c -0.0919,-0.004 -0.19647,0.013 -0.29197,0.0512 -0.21106,0.0845 -0.14855,0.14749 0.15968,0.16019 0.27886,0.0115 0.43516,-0.0511 0.34726,-0.13901 -0.044,-0.0439 -0.12305,-0.0686 -0.21497,-0.0723 z m -26.581327,0.13642 c -0.0492,10e-4 -0.13193,0.0971 -0.25838,0.26407 -0.44164,0.58311 -0.50436,0.99136 -0.11524,0.75086 0.1805,-0.11155 0.21322,0.088 0.0951,0.57981 h 5.2e-4 c -0.0995,0.41238 -0.0974,0.67352 0.004,0.58032 0.10151,-0.0932 0.23051,-0.67212 0.28681,-1.28674 0.0577,-0.63058 0.069,-0.89057 -0.0129,-0.88832 z m -12.035955,0.23823 c -0.09809,0.0221 -0.0259,0.21199 0.22583,0.65061 0.48118,0.83849 0.71918,0.86181 0.45992,0.045 -0.09158,-0.28856 -0.33054,-0.58756 -0.53124,-0.66456 -0.07019,-0.0269 -0.12181,-0.0384 -0.15451,-0.031 z m 41.814502,0.15658 c -0.11989,0 -0.23978,0.0181 -0.33073,0.0548 -0.1819,0.0734 -0.0331,0.13332 0.33073,0.13332 0.36383,0 0.51263,-0.0599 0.33073,-0.13332 -0.0909,-0.0367 -0.21084,-0.0548 -0.33073,-0.0548 z m 1.98438,0.50281 c -0.14552,0 -0.44318,0.11525 -0.66146,0.25632 -0.35277,0.22801 -0.35277,0.2623 0,0.3054 0.21828,0.0267 -0.31751,0.13076 -1.19063,0.23152 l -1.5875,0.18293 1.52446,-0.0289 c 0.83841,-0.0161 1.51271,-0.13482 1.49861,-0.26407 -0.0141,-0.12925 0.1333,-0.33622 0.32763,-0.4594 0.19429,-0.12319 0.23441,-0.22376 0.0889,-0.22376 z m -9.77408,0.52503 c -0.13695,-0.002 -0.0182,0.16466 0.26406,0.37104 0.28225,0.2064 0.56941,0.31943 0.63821,0.25063 0.14562,-0.14561 -0.53654,-0.61567 -0.90227,-0.62167 z m 10.6779,0.0284 c -0.0919,-0.004 -0.19647,0.013 -0.29197,0.0512 -0.21107,0.0845 -0.14854,0.14749 0.15968,0.16019 0.27887,0.0115 0.43516,-0.0511 0.34726,-0.13901 -0.044,-0.0439 -0.12306,-0.0686 -0.21497,-0.0723 z m -19.377627,0.0418 c -0.0594,0.002 -0.15228,0.0583 -0.28629,0.1695 -0.30227,0.25086 -0.36163,0.6767 -0.17777,1.27744 0.0111,0.0364 0.0731,0.0661 0.13746,0.0661 0.0644,0 0.071,-0.23813 0.015,-0.52917 -0.056,-0.29104 0.0101,-0.52916 0.14728,-0.52916 0.13716,0 0.24959,-0.1333 0.24959,-0.29663 0,-0.10703 -0.0258,-0.15998 -0.0853,-0.15813 z m -14.12835,0.0258 c -0.0278,0.0278 -0.0469,0.12029 -0.0532,0.2744 -0.0115,0.27886 0.0511,0.43517 0.139,0.34727 0.0879,-0.0879 0.0976,-0.31595 0.0212,-0.50695 -0.0422,-0.10553 -0.0791,-0.14254 -0.10697,-0.11472 z m 22.206927,0.18397 c -0.10283,-0.003 -0.25659,0.0768 -0.3912,0.21239 -0.25936,0.2613 -0.22876,0.29138 0.14832,0.1478 0.26092,-0.0994 0.40757,-0.24717 0.32607,-0.32867 -0.0204,-0.0204 -0.0489,-0.0305 -0.0832,-0.0315 z m 13.13976,0.0108 c -0.23978,-7e-4 -0.48931,0.014 -0.6904,0.0444 v 5.2e-4 c -0.40217,0.0608 -0.13591,0.11221 0.5917,0.11421 0.72724,0.002 1.05664,-0.0478 0.73122,-0.11059 -0.16271,-0.0316 -0.39274,-0.0479 -0.63252,-0.0486 z m -12.32844,0.51212 c -0.12647,0 -0.34347,0.0837 -0.60255,0.25114 -0.34205,0.22104 -0.33493,0.25645 0.0506,0.26045 0.24608,0.002 0.52092,-0.11493 0.61082,-0.26045 0.10347,-0.16742 0.0676,-0.25114 -0.0589,-0.25114 z m 3.3662,0.0212 c -0.11989,0 -0.23978,0.0181 -0.33073,0.0548 -0.1819,0.0734 -0.0331,0.13333 0.33073,0.13333 0.36383,0 0.51263,-0.0599 0.33073,-0.13333 -0.091,-0.0367 -0.21084,-0.0548 -0.33073,-0.0548 z m -9.164817,0.52659 c -0.0561,-0.009 -0.0956,0.0613 -0.0956,0.18862 0,0.16978 -0.29766,0.3085 -0.66146,0.3085 -0.3638,0 -0.66146,0.0989 -0.66146,0.21963 0,0.35371 1.16972,0.21044 1.41336,-0.17312 0.1224,-0.19282 0.15224,-0.42084 0.0661,-0.50694 -0.0215,-0.0215 -0.0423,-0.0337 -0.061,-0.0367 z m 7.555097,10e-4 c -0.0919,-0.004 -0.19647,0.013 -0.29197,0.0512 -0.21107,0.0845 -0.14854,0.14698 0.15968,0.15968 0.27887,0.0115 0.43516,-0.0511 0.34726,-0.13901 -0.044,-0.0439 -0.12306,-0.068 -0.21497,-0.0718 z m -9.227347,0.10387 c -0.0145,-6.6e-4 -0.0333,0.004 -0.0574,0.0145 -0.19258,0.0823 -0.62721,0.49835 -0.96531,0.92449 -0.33808,0.42614 -0.45717,0.70749 -0.26459,0.62529 0.19258,-0.0822 0.62721,-0.49837 0.96532,-0.9245 0.29582,-0.37287 0.42354,-0.63515 0.32194,-0.63975 z m 6.972187,0.13539 c -0.40115,-0.0309 -1.44467,0.0963 -1.82366,0.26407 -0.35334,0.1565 -0.13356,0.18159 0.66145,0.0765 0.65484,-0.0866 1.2401,-0.2002 1.3007,-0.2527 0.0575,-0.0498 -0.005,-0.0775 -0.13849,-0.0879 z m -9.485727,0.0806 c -0.20833,0 -0.29395,0.16502 -0.20515,0.39636 0.10699,0.27881 0.0482,0.33173 -0.19844,0.17931 -0.23314,-0.14409 -0.28736,-0.11435 -0.16175,0.0889 0.25637,0.41482 0.3599,0.38703 0.66301,-0.17932 0.19213,-0.35908 0.16687,-0.48524 -0.0977,-0.48524 z m -34.752405,0.17156 c 0.93582,-0.0276 1.97556,0.15759 3.20704,0.53795 5.43938,1.68005 8.49014,7.298258 6.90397,12.713958 -0.23149,0.7904 -0.50673,1.52811 -0.61185,1.63917 -0.10513,0.11106 -0.39263,-0.43678 -0.63872,-1.21749 -0.89201,-2.82977 -3.14327,-5.5753 -5.89369,-7.187158 -1.40351,-0.82251 -4.73567,-1.73992 -6.46163,-1.77922 -1.44007,-0.0328 -1.26902,-0.45809 0.18707,-0.46509 0.46435,-0.002 0.91166,-0.11333 0.99426,-0.24701 0.18259,-0.29543 -1.2313,-0.63593 -2.50011,-0.60203 l -0.92604,0.0248 1.5198,-1.42937 c 1.38916,-1.30616 2.6602,-1.94257 4.2199,-1.98851 z m 33.734385,0.68988 c -0.11526,-0.0266 -0.28842,0.0989 -0.60617,0.3974 -0.34071,0.32008 -0.55527,0.6856 -0.47697,0.81235 0.28287,0.4577 1.44788,-0.47892 1.24695,-1.00252 -0.0463,-0.1206 -0.0947,-0.1913 -0.16381,-0.20723 z m 6.67349,0.1416 c -0.0919,-0.004 -0.19647,0.013 -0.29197,0.0512 -0.21106,0.0845 -0.14855,0.14698 0.15968,0.15968 0.27886,0.0115 0.43516,-0.0511 0.34726,-0.13901 -0.044,-0.0439 -0.12305,-0.068 -0.21497,-0.0718 z m -1.63711,0.007 c -0.0355,-0.001 -0.10091,0.0479 -0.19844,0.14056 -0.18123,0.17212 -0.25751,0.49955 -0.17001,0.72761 0.18525,0.48275 0.41935,0.51382 0.96945,0.12867 0.30698,-0.21492 0.25588,-0.23825 -0.22479,-0.10232 -0.55573,0.15717 -0.6013,0.11028 -0.43305,-0.44545 0.0928,-0.30659 0.116,-0.44723 0.0568,-0.44907 z m -5.20433,0.22428 c 0.15407,0 0.20669,0.11906 0.11679,0.26458 -0.0899,0.14552 -0.21589,0.26458 -0.28009,0.26458 -0.0642,0 -0.11679,-0.11906 -0.11679,-0.26458 0,-0.14552 0.12598,-0.26458 0.28009,-0.26458 z m -34.797365,0.0884 c -0.19657,0 -0.3006,0.1484 -0.231,0.3297 0.06957,0.1813 -0.09019,0.38564 -0.35553,0.45424 -0.42374,0.10954 -0.42747,0.12854 -0.02894,0.15554 0.24954,0.0169 0.57036,-0.18796 0.71314,-0.45475 0.19213,-0.35908 0.16687,-0.48473 -0.09767,-0.48473 z m 0.81184,0.27389 c -0.0087,0.0131 0.02315,0.0398 0.09818,0.077 0.15009,0.0743 0.20571,0.24414 0.12351,0.37723 -0.08226,0.13309 -0.0138,0.24185 0.15244,0.24185 0.39246,0 0.19168,-0.60923 -0.22789,-0.69143 -0.08824,-0.0173 -0.13755,-0.0177 -0.14624,-0.005 z m 36.174015,0.16691 c -0.46432,0 -1.05566,0.87549 -1.50585,2.22984 -0.23838,0.71715 -0.43356,1.34226 -0.43356,1.38906 0,0.39317 0.28739,-0.1274 0.63769,-1.15548 0.23254,-0.68246 0.681,-1.5159 0.99683,-1.85208 0.31584,-0.33619 0.45323,-0.61134 0.30489,-0.61134 z m -39.158335,0.17415 c -0.23305,0.0142 -0.66558,0.29637 -1.03456,0.6873 -0.61679,0.65348 -0.65369,0.75191 -0.19017,0.50385 0.37694,-0.20177 0.63274,-0.21646 0.74001,-0.0429 0.09018,0.14591 0.30573,0.26184 0.47904,0.25684 0.17332,-0.005 0.08323,-0.18372 -0.19999,-0.39791 -0.39962,-0.30223 -0.44407,-0.46027 -0.19844,-0.7059 0.2456,-0.24561 0.31678,-0.24536 0.31678,10e-4 0,0.17463 0.11906,0.31729 0.26458,0.31729 0.38898,0 0.32247,-0.45049 -0.08992,-0.60874 -0.02438,-0.009 -0.05404,-0.0129 -0.08733,-0.0109 z m 41.467755,0.35502 c -0.15411,0 -0.28008,0.11906 -0.28008,0.26458 0,0.14552 0.0526,0.26459 0.11679,0.26459 0.0642,0 0.19018,-0.11907 0.28008,-0.26459 0.0899,-0.14552 0.0373,-0.26458 -0.11679,-0.26458 z m -7.54941,0.062 c -0.0194,0.003 -0.0357,0.0109 -0.0481,0.0233 -0.0985,0.0986 -0.0323,0.17931 0.14727,0.17931 0.20593,0 0.272,0.21978 0.1788,0.59532 -0.0813,0.32745 -0.0813,0.45329 -5.1e-4,0.27957 0.0808,-0.17373 0.34314,-0.24052 0.58342,-0.14832 0.31718,0.12172 0.27738,-0.004 -0.14624,-0.45837 -0.28079,-0.30139 -0.57861,-0.49355 -0.71469,-0.47077 z m -31.227555,0.47594 c -0.37517,-0.006 -0.25966,0.13058 0.39688,0.46767 0.50933,0.26151 0.97711,0.43878 1.03921,0.39378 0.22706,-0.16426 -0.92219,-0.85345 -1.43609,-0.86145 z m -1.22214,0.0253 c -0.14387,-0.002 -0.29762,0.0135 -0.42634,0.047 v 5.2e-4 c -0.25742,0.0671 -0.11099,0.12677 0.32557,0.13177 0.43656,0.005 0.64731,-0.0495 0.46818,-0.12196 -0.08956,-0.0364 -0.22355,-0.0556 -0.36741,-0.0574 z m 55.856022,1.32912 c 0.58329,-8.9e-4 1.18399,0.0142 1.80609,0.0444 4.40349,0.21406 6.83415,0.89684 8.4491,2.3735 0.95964,0.87748 0.69718,0.96122 -0.94052,0.29972 -6.37411,-2.57461 -16.8061,-0.63797 -23.356187,4.336168 -4.37851,3.32503 -7.38715,8.32514 -7.38715,12.27626 0,0.5515 -0.11906,1.00252 -0.26458,1.00252 -0.14968,0 -0.26459,-0.75892 -0.26459,-1.7477 0,-6.02381 4.64916,-12.74971 11.039117,-15.970078 3.61401,-1.82136 6.83569,-2.60856 10.91872,-2.61483 z m -54.898462,1.54719 c 3.28083,0 7.11653,3.615548 8.61601,8.121468 0.5297,1.59174 0.54964,1.86353 0.23255,3.18534 -0.19066,0.79477 -0.57153,1.73096 -0.84646,2.08049 -0.27494,0.34953 -0.60272,0.63562 -0.72864,0.63562 -0.12591,0 -0.61379,-0.53531 -1.08366,-1.18959 -2.06808,-2.87974 -6.63267,-5.16041 -10.32857,-5.16041 -1.35192,0 -1.77077,-0.47475 -1.41283,-1.60249 0.47307,-1.49054 5.32214,-1.63764 7.31067,-0.22169 0.89597,0.638 1.00902,0.29701 0.15916,-0.48007 -1.17421,-1.07367 -2.28208,-1.43956 -4.32428,-1.42886 -1.07757,0.006 -2.21121,0.14521 -2.51923,0.31006 -0.78352,0.41932 -0.55176,-0.21909 0.31161,-0.85834 1.22607,-0.90781 3.77409,-1.04055 6.59804,-0.34313 0.49776,0.12293 0.40115,-0.003 -0.39015,-0.50902 -1.18835,-0.760088 -2.64892,-1.048918 -4.61522,-0.912598 -1.31714,0.0913 -1.33128,0.0845 -0.74828,-0.36225 0.79783,-0.61136 2.74464,-1.26453 3.76928,-1.26453 z m 34.606675,0.15348 c -0.0264,-0.008 -0.0995,0.0726 -0.21755,0.2279 -0.21472,0.28247 -0.39016,0.66942 -0.39016,0.85989 0,0.19047 -0.11907,0.34623 -0.26459,0.34623 -0.14552,0 -0.26458,0.11907 -0.26458,0.26459 0,0.643608 0.48565,0.168838 0.87953,-0.8599 0.21694,-0.56665 0.30142,-0.82545 0.25735,-0.83871 z m 22.411037,1.04387 c 3.56604,-0.006 4.35634,0.0733 6.05958,0.60823 1.61477,0.507198 2.23088,0.874928 3.50779,2.092888 0.85191,0.81258 1.50896,1.51773 1.45986,1.56683 -0.0491,0.0491 -0.67515,-0.0843 -1.39113,-0.2961 -3.26753,-0.96652 -8.01104,-0.91107 -10.77867,0.12609 -0.84679,0.31733 -1.61109,0.50609 -1.69809,0.41909 -0.087,-0.0869 0.0332,-0.15813 0.26717,-0.15813 0.23395,0 0.4989,-0.11898 0.5886,-0.26406 0.10836,-0.17532 -0.0696,-0.17532 -0.53072,0 -0.93023,0.35373 -1.25914,0.33257 -1.0294,-0.0667 0.10472,-0.18193 0.0884,-0.23789 -0.0362,-0.12454 -0.12455,0.11335 -0.25295,0.3861 -0.28525,0.60617 -0.0415,0.2827 0.0901,0.35251 0.44855,0.23874 0.47986,-0.15231 0.73316,0.23358 0.30902,0.47078 -0.10914,0.0611 -0.0198,0.0609 0.19844,-5.2e-4 3.42011,-0.96128 7.52741,-1.32611 9.82886,-0.87333 3.17114,0.62389 6.03151,2.65115 7.47034,5.29477 0.9094,1.67085 2.09881,5.11959 1.6707,4.84414 -0.17424,-0.11209 -1.15022,-0.74907 -2.16886,-1.41541 -5.88255,-3.84806 -12.96649,-4.46749 -21.01422,-1.83762 -6.27261,2.04979 -11.615297,6.03803 -12.093317,9.02736 -0.18857,1.17926 -0.74951,1.36947 -1.18959,0.40359 -0.21759,-0.47755 -0.18716,-0.97297 0.12609,-2.05052 0.73049,-2.51281 3.59385,-5.20687 8.531777,-8.02742 2.50485,-1.43076 2.18897,-1.58502 -0.49506,-0.24184 -5.623437,2.81417 -8.827437,6.07272 -8.999447,9.15293 -0.0307,0.55 -0.12274,1.0007 -0.20464,1.00149 -0.0819,7.5e-4 -0.4859,-0.35006 -0.89762,-0.7798 -0.73147,-0.76349 -0.74454,-0.82837 -0.56275,-2.83445 0.35199,-3.88444 1.75443,-6.90322 4.62762,-9.96115 4.463137,-4.75011 10.163567,-6.908338 18.280537,-6.921538 z m -1.3379,1.236098 c -0.49613,0.007 -0.78093,0.034 -0.73433,0.0806 0.0932,0.0932 1.28227,0.16362 2.64222,0.15762 1.35996,-0.006 2.65131,0.10252 2.86959,0.24184 0.48676,0.31066 0.72318,0.32511 0.8909,0.0537 0.17169,-0.27781 -0.25372,-0.33454 -3.66541,-0.48989 -0.79932,-0.0364 -1.50685,-0.0506 -2.00297,-0.0439 z m -22.645127,0.16019 c -0.0343,-0.0112 -0.0801,0.0367 -0.1385,0.14108 -0.1215,0.21711 -0.14854,0.58364 -0.0599,0.81442 0.2298,0.59889 0.2806,0.52715 0.2806,-0.39481 0,-0.35897 -0.0251,-0.54195 -0.0822,-0.56069 z m 28.936727,0.33022 c -0.12646,0 -0.16239,0.0837 -0.0589,0.25114 0.0899,0.14552 0.36475,0.26245 0.61082,0.26045 0.38553,-0.003 0.39267,-0.0394 0.0506,-0.26045 -0.25908,-0.16743 -0.47609,-0.25114 -0.60255,-0.25114 z m -9.84849,0.27285 -0.79375,0.15813 c -0.43656,0.0869 -1.0914,0.32657 -1.45521,0.53227 l -0.66146,0.37362 0.74982,-0.15658 c 0.48092,-0.10047 0.68925,-0.0588 0.58136,0.11575 -0.10414,0.1685 0.008,0.20414 0.29508,0.0941 0.3424,-0.13139 0.37011,-0.20874 0.1049,-0.29714 -0.22263,-0.0742 -0.0673,-0.25259 0.40979,-0.46974 z m -19.446877,0.50746 c -0.0137,-0.0137 -0.12091,0.0664 -0.33073,0.23099 -0.25466,0.19972 -0.46302,0.40812 -0.46302,0.46302 0,0.21776 0.21712,0.0774 0.56276,-0.36328 0.16455,-0.20983 0.24465,-0.31707 0.23099,-0.33073 z m 19.556947,0.0326 c -0.0919,-0.004 -0.19647,0.013 -0.29197,0.0512 -0.21107,0.0845 -0.14854,0.14749 0.15968,0.16019 0.27887,0.0115 0.43516,-0.0511 0.34726,-0.13901 -0.044,-0.044 -0.12306,-0.0686 -0.21497,-0.0723 z m 7.9375,0 c -0.0919,-0.004 -0.19647,0.013 -0.29197,0.0512 -0.21107,0.0845 -0.14854,0.14749 0.15968,0.16019 0.27887,0.0115 0.43516,-0.0511 0.34726,-0.13901 -0.044,-0.044 -0.12306,-0.0686 -0.21497,-0.0723 z m -1.21492,0.078 c -0.20552,0.0119 -0.60804,0.11751 -1.03507,0.27905 l -1.03508,0.39171 1.05833,-0.16123 c 1.12157,-0.17071 1.36147,-0.27306 1.14567,-0.48886 -0.0183,-0.0183 -0.0653,-0.0246 -0.13385,-0.0207 z m -5.66425,0.18655 c -0.0919,-0.004 -0.19647,0.013 -0.29197,0.0512 -0.21106,0.0845 -0.14855,0.1475 0.15968,0.1602 0.27886,0.0115 0.43516,-0.0511 0.34726,-0.13901 -0.044,-0.044 -0.12305,-0.0686 -0.21497,-0.0724 z m -4.68809,0.23771 c -0.19621,-0.0252 -0.58136,0.30943 -0.58136,0.54984 0,0.14263 0.1664,0.10547 0.37001,-0.0822 0.20359,-0.18764 0.33055,-0.38256 0.28215,-0.43356 -0.0186,-0.0196 -0.0428,-0.0305 -0.0708,-0.0341 z m -15.751487,0.0558 c -0.0391,0.0175 -0.0976,0.0822 -0.1757,0.20309 -0.14107,0.21829 -0.24984,0.57547 -0.24184,0.79375 0.01,0.26169 0.0919,0.21663 0.24184,-0.13229 0.23441,-0.54552 0.29291,-0.917 0.1757,-0.86455 z m 20.594087,0.20309 c -0.20111,0 -0.42084,0.0893 -0.48834,0.19844 -0.0675,0.10914 0.15233,0.19844 0.48834,0.19844 0.33601,0 0.55585,-0.0893 0.48835,-0.19844 -0.0674,-0.10914 -0.28725,-0.19844 -0.48835,-0.19844 z m -6.33449,0.52917 c -0.0642,0 -0.19019,0.11906 -0.28009,0.26458 -0.0899,0.14552 -0.0373,0.26458 0.11679,0.26458 0.15411,0 0.28008,-0.11906 0.28008,-0.26458 0,-0.14552 -0.0526,-0.26458 -0.11678,-0.26458 z m -0.67697,0.26458 c -0.0136,-0.0137 -0.1209,0.0664 -0.33072,0.23099 -0.25466,0.19972 -0.46303,0.40812 -0.46303,0.46302 0,0.21776 0.21711,0.0774 0.56276,-0.36328 0.16455,-0.20983 0.24465,-0.31707 0.23099,-0.33073 z m 11.77396,0.52917 c -0.23548,0 -0.35448,0.11906 -0.26458,0.26458 0.0899,0.14552 0.20898,0.26458 0.26458,0.26458 0.0556,0 0.17469,-0.11906 0.26459,-0.26458 0.0899,-0.14552 -0.0291,-0.26458 -0.26459,-0.26458 z m 1.49345,0.2992 c -0.26134,0.002 -0.50618,0.0628 -0.60616,0.16278 -0.14678,0.1468 0.10001,0.18591 0.6258,0.0987 0.73473,-0.1218 0.77197,-0.15907 0.24236,-0.24237 -0.0861,-0.0135 -0.17488,-0.0197 -0.262,-0.0191 z m -12.20907,0.22996 c -0.14552,0 -0.26459,0.11907 -0.26459,0.26459 0,0.14552 0.11907,0.26458 0.26459,0.26458 0.14552,0 0.26458,-0.11906 0.26458,-0.26458 0,-0.14552 -0.11906,-0.26459 -0.26458,-0.26459 z m 8.70903,0.0326 c -0.0919,-0.004 -0.19647,0.013 -0.29197,0.0512 -0.21107,0.0845 -0.14854,0.1475 0.15968,0.1602 0.27887,0.0115 0.43516,-0.0511 0.34726,-0.13901 -0.044,-0.0439 -0.12306,-0.0686 -0.21497,-0.0724 z m 7.71632,0.002 c -0.0317,0.0168 0.0452,0.11927 0.20981,0.31884 0.19972,0.24211 0.4676,0.44028 0.59531,0.44028 0.40414,0 0.25239,-0.23521 -0.36328,-0.56327 -0.26991,-0.14381 -0.41011,-0.21266 -0.44184,-0.19585 z m -19.54816,0.22996 c -0.17964,0 -1.09274,1.1846 -1.10174,1.42937 -0.005,0.13141 0.21762,-0.0223 0.49454,-0.34158 0.35861,-0.41347 0.54129,-0.48206 0.63459,-0.23875 0.0721,0.18789 0.1179,0.0737 0.1018,-0.25373 -0.0161,-0.32742 -0.0744,-0.59531 -0.12919,-0.59531 z m 5.23947,0.0305 c -0.2158,0 -0.4316,0.016 -0.59531,0.0475 -0.32742,0.0631 -0.0595,0.11472 0.59531,0.11472 0.65481,0 0.92274,-0.0516 0.59532,-0.11472 -0.16371,-0.0316 -0.37952,-0.0475 -0.59532,-0.0475 z m 3.93672,0.2682 c -0.14387,-0.002 -0.2971,0.014 -0.42582,0.0475 -0.25743,0.0671 -0.111,0.12677 0.32556,0.13177 0.43655,0.005 0.64733,-0.0495 0.46819,-0.12195 -0.0896,-0.0363 -0.22407,-0.0556 -0.36793,-0.0574 z m 6.11745,0 c -0.11989,0 -0.23978,0.0186 -0.33073,0.0553 -0.1819,0.0734 -0.0331,0.13333 0.33073,0.13333 0.36383,0 0.51263,-0.0599 0.33073,-0.13333 -0.0909,-0.0367 -0.21084,-0.0553 -0.33073,-0.0553 z m -3.70417,0.26096 c -0.2158,0 -0.4316,0.016 -0.59531,0.0476 -0.32742,0.0631 -0.0595,0.11472 0.59531,0.11472 0.65481,0 0.92274,-0.0516 0.59532,-0.11472 -0.16371,-0.0315 -0.37952,-0.0476 -0.59532,-0.0476 z m 4.7625,0.26665 c -0.16784,0 -0.33569,0.0163 -0.46302,0.0496 -0.25466,0.0665 -0.0463,0.12144 0.46302,0.12144 0.50932,0 0.71769,-0.0548 0.46303,-0.12144 -0.12733,-0.0333 -0.29518,-0.0496 -0.46303,-0.0496 z m -2.11666,0.002 c -0.11989,0 -0.23978,0.0186 -0.33073,0.0553 -0.1819,0.0735 -0.0331,0.13332 0.33073,0.13332 0.36383,0 0.51263,-0.0599 0.33073,-0.13332 -0.091,-0.0367 -0.21084,-0.0553 -0.33073,-0.0553 z m 5.18573,0.0496 c -0.1758,0.007 -0.38817,0.048 -0.59841,0.12248 -0.74112,0.26251 -0.73836,0.26571 0.22582,0.22841 0.54541,-0.0211 0.87704,-0.13872 0.75086,-0.26614 -0.0633,-0.0639 -0.20248,-0.0915 -0.37827,-0.0848 z m 1.85518,0.007 c -0.0949,-0.016 -0.16175,0.0426 -0.16175,0.15813 0,0.1541 0.11907,0.28008 0.26459,0.28008 0.14552,0 0.26458,-0.0526 0.26458,-0.11678 0,-0.0642 -0.11906,-0.19019 -0.26458,-0.28009 -0.0364,-0.0225 -0.0712,-0.036 -0.10284,-0.0413 z m -20.21427,0.19327 c -0.10282,-0.003 -0.25659,0.0763 -0.39119,0.21187 -0.25936,0.26131 -0.22877,0.2919 0.14831,0.14831 0.26092,-0.0994 0.40758,-0.24716 0.32608,-0.32866 -0.0204,-0.0204 -0.0489,-0.0305 -0.0832,-0.0315 z m -1.21698,0.33589 c -0.0949,-0.0159 -0.16175,0.0426 -0.16175,0.15813 0,0.15411 0.11907,0.28009 0.26459,0.28009 0.14552,0 0.26458,-0.0526 0.26458,-0.11679 0,-0.0642 -0.11906,-0.19018 -0.26458,-0.28008 -0.0364,-0.0225 -0.0712,-0.036 -0.10284,-0.0414 z m -46.571832,0.52814 c 0.91899,-0.0464 1.95355,0.15744 2.79931,0.59479 1.95882,1.01294 4.33256,4.07966 4.86947,6.29006 0.17098,0.70392 0.14018,0.74327 -0.447,0.56379 -0.62513,-0.19109 -0.62437,-0.18561 0.09612,0.58032 0.92413,0.98239 0.94177,1.34831 0.03049,0.63149 -1.07288,-0.84392 -1.35433,-0.64978 -0.45166,0.31161 1.06519,1.13448 1.34528,1.88411 0.61754,1.65313 -0.47561,-0.15095 -0.50171,-0.0986 -0.26304,0.52917 0.44566,1.17216 0.35621,1.52306 -0.29972,1.17202 -0.5259,-0.28145 -0.5526,-0.25286 -0.3855,0.41289 0.10535,0.41977 0.05178,0.8687 -0.1292,1.08676 -0.43456,0.52362 -1.02194,0.46098 -2.11821,-0.22531 -1.68854,-1.05706 -2.93691,-2.7003 -3.09129,-4.07004 -0.13438,-1.19219 -0.14695,-1.20726 -0.51056,-0.59324 -0.34441,0.58161 -0.36147,0.52337 -0.21756,-0.75913 0.15565,-1.38707 -0.0039,-1.67093 -0.60306,-1.07177 -0.45696,0.45699 -0.40535,-0.26273 0.07958,-1.11104 0.56642,-0.99083 0.5147,-1.4046 -0.13229,-1.05834 -0.71019,0.38009 -0.66662,0.0245 0.12919,-1.0542 0.3621,-0.49078 0.6077,-0.9431 0.5457,-1.0051 -0.06198,-0.062 -0.49577,0.0782 -0.96376,0.31161 -1.0833,0.54042 -1.11236,0.53577 -0.75758,-0.12713 0.40661,-0.75977 0.16259,-0.89802 -0.64802,-0.3669 -0.61424,0.4025 -0.69718,0.40553 -0.84129,0.03 -0.2905,-0.75702 0.28879,-1.87383 1.22834,-2.36781 0.40268,-0.21171 0.9126,-0.32979 1.464,-0.3576 z m -0.97565,0.45578 c -0.23211,-0.009 -0.61743,0.19909 -0.85628,0.46302 -0.34694,0.38336 -0.3683,0.55115 -0.10697,0.83303 0.26576,0.28665 0.23748,0.32114 -0.14986,0.18448 -0.28341,-0.0999 -0.41081,-0.0619 -0.31471,0.0935 0.19668,0.31824 0.41492,0.32449 0.88625,0.0258 0.2502,-0.15857 0.27028,-0.28209 0.06614,-0.40825 -0.46683,-0.28852 -0.34154,-0.67654 0.30231,-0.93534 0.38745,-0.15573 0.44778,-0.24542 0.17312,-0.25632 z m 34.245975,0.0842 c -0.0238,-6e-4 -0.055,0.0104 -0.0925,0.0336 -0.14385,0.0889 -0.26149,0.27338 -0.26149,0.41031 0,0.38059 0.18947,0.29662 0.36536,-0.16175 0.0678,-0.1766 0.0601,-0.28036 -0.0114,-0.28215 z m 11.974457,0.23822 c -0.0169,-0.0146 -0.14891,-0.0105 -0.40152,0.009 -0.3524,0.0269 -0.688857,0.22768 -0.747757,0.44597 -0.0707,0.26217 -0.0328,0.29493 0.11162,0.0966 0.12022,-0.16507 0.456717,-0.36535 0.747757,-0.44545 0.20862,-0.0574 0.3068,-0.0913 0.2899,-0.10594 z m -45.709872,1.24851 c -0.16978,0 -0.23068,0.0784 -0.13488,0.17415 0.09575,0.0957 0.03927,0.33674 -0.12557,0.53536 -0.23687,0.28538 -0.20836,0.32602 0.13488,0.19431 0.49461,-0.18981 0.59381,-0.90382 0.12557,-0.90382 z m 60.435072,0.84801 c 6.54671,-0.0351 14.02379,2.79657 15.81816,6.31382 0.66748,1.30837 0.65547,1.58435 -0.13643,3.1471 -0.69821,1.37786 -1.19579,1.88814 -1.19579,1.22628 0,-0.22142 -0.24205,-1.04986 -0.53795,-1.84071 -1.73239,-4.63022 -6.86299,-6.77681 -15.35359,-6.42338 -8.11209,0.33766 -13.46036,2.77782 -15.768027,7.19439 -0.57098,1.09277 -0.89522,1.43969 -1.3472,1.44022 -0.72738,7.7e-4 -0.74268,-0.26546 -0.0868,-1.53117 2.34036,-4.51661 8.760277,-8.28891 15.878097,-9.32967 0.878,-0.12838 1.79431,-0.19186 2.72955,-0.19688 z m -1.19941,3.2675 c 2.30816,-0.0239 4.58634,0.0888 5.63118,0.35036 4.56138,1.14194 7.16096,3.70612 8.32973,8.21656 0.48125,1.8572 0.41806,2.20655 -0.22221,1.22938 -0.45376,-0.69254 -2.14061,-1.78372 -3.47731,-2.24896 l -0.79375,-0.27595 0.65526,0.45837 c 2.09885,1.4684 3.44578,3.26832 3.44578,4.60489 0,0.53181 -0.13519,0.46589 -1.25677,-0.61495 -0.69123,-0.66612 -1.64373,-1.43138 -2.11667,-1.70068 -0.47294,-0.26929 -0.85989,-0.67925 -0.85989,-0.91053 0,-0.23128 -0.65484,-1.04078 -1.45521,-1.79938 -1.62214,-1.53752 -1.89761,-2.42827 -0.75086,-2.42827 0.38744,0 1.27784,0.3678 1.97869,0.81752 1.65865,1.06436 2.13964,0.89347 1.03301,-0.3669 -2.19448,-2.49938 -10.73679,-4.72706 -13.57178,-3.53932 -1.5139,0.63426 -1.17723,1.23661 0.69143,1.23661 1.78866,0 5.30175,1.30507 4.81728,1.78956 -0.0878,0.0878 -0.29135,0.028 -0.45217,-0.13281 -0.16083,-0.16084 -0.47631,-0.22201 -0.70073,-0.13591 -0.25167,0.0966 -0.34008,0.0475 -0.23151,-0.12816 0.10794,-0.17482 -0.003,-0.23931 -0.28732,-0.16691 -0.25486,0.0649 -1.01006,-0.0479 -1.67794,-0.25063 -0.95908,-0.29114 -1.30667,-0.30125 -1.65364,-0.0475 -0.76927,0.56251 -0.48803,0.82784 1.61127,1.51877 2.8868,0.95012 6.47977,2.28941 6.66057,2.48305 0.0838,0.0894 -0.0857,0.0906 -0.37672,0.002 -1.12514,-0.34199 -3.83516,-0.59836 -4.1584,-0.39326 -0.22994,0.14587 -0.13555,0.21662 0.29249,0.21962 0.34776,0.002 0.80308,0.21249 1.01182,0.46716 0.20899,0.25466 0.30449,0.31419 0.21239,0.13229 -0.22796,-0.45003 0.0279,-0.41842 1.6645,0.2036 4.54793,1.72857 7.69283,3.99224 8.89403,6.40271 0.67637,1.35731 0.92631,3.38171 0.41755,3.38171 -0.14552,0 -0.26459,-0.27712 -0.26459,-0.61598 0,-0.99383 -1.51214,-2.99317 -3.18326,-4.20905 -0.85278,-0.62047 -1.50276,-1.2728 -1.44436,-1.45004 0.0584,-0.17724 -0.0102,-0.39446 -0.15296,-0.48266 -0.14278,-0.0882 -0.22707,-0.0446 -0.18707,0.0972 0.10619,0.37659 -0.2154,0.36318 -1.20458,-0.0501 -1.62327,-0.67824 -5.59586,-1.47773 -7.98969,-1.60817 -2.0763,-0.11313 -2.20839,-0.0966 -1.05162,0.13436 6.01658,1.20116 10.73752,3.44996 12.84728,6.119 2.21415,2.80111 1.58657,5.40571 -1.83141,7.59902 v 5.2e-4 c -0.69994,0.44916 -1.32183,0.81614 -1.38183,0.81597 -0.06,-1.7e-4 -0.11657,-0.68478 -0.12557,-1.52135 -0.0451,-4.16083 -4.2229,-8.00891 -10.88254,-10.02471 -1.9313,-0.58458 -2.87373,-0.71013 -5.50509,-0.73123 -2.91208,-0.0234 -3.29896,0.033 -4.67259,0.67696 l -1.497577,0.70177 -0.30747,-2.16317 c -0.28551,-2.01131 -0.26546,-2.27462 0.28215,-3.745 0.45427,-1.21973 1.018207,-2.0118 2.465997,-3.46283 2.10968,-2.1144 4.20102,-3.31004 6.97063,-3.98581 1.16577,-0.28443 3.50389,-0.44483 5.81205,-0.4687 z m -1.00562,3.58996 c -0.0919,-0.004 -0.19647,0.013 -0.29197,0.0512 -0.21107,0.0845 -0.14854,0.1475 0.15968,0.1602 0.27887,0.0115 0.43516,-0.0511 0.34726,-0.13901 -0.044,-0.0439 -0.12306,-0.0686 -0.21497,-0.0724 z m -4.19716,0.18035 c -0.23977,0.0121 -0.54891,0.0915 -0.99012,0.24185 -0.62732,0.21375 -1.1405,0.44528 -1.1405,0.51418 0,0.0689 0.26788,0.0286 0.59531,-0.0894 0.32742,-0.1181 1.0314,-0.21013 1.56425,-0.20413 0.80354,0.009 0.89646,-0.0429 0.54518,-0.29972 -0.16384,-0.11982 -0.33435,-0.17487 -0.57412,-0.16278 z m -2.80138,1.20303 c -0.0944,0.018 -0.24436,0.1313 -0.38241,0.29765 -0.20867,0.25146 -0.22867,0.40308 -0.0532,0.40308 0.31976,0 0.6925,-0.50226 0.50901,-0.68575 -0.0166,-0.0166 -0.0419,-0.021 -0.0734,-0.015 z m 5.96553,0.74776 c -0.20271,0 -0.20792,0.0727 0.12919,0.21755 0.29104,0.12511 0.76729,0.22363 1.05833,0.21963 0.4254,-0.006 0.39945,-0.0493 -0.13229,-0.21963 -0.45232,-0.14486 -0.85253,-0.21755 -1.05523,-0.21755 z m -6.95514,0.14056 c -0.14107,0.009 -0.47118,0.15134 -0.85317,0.37672 -0.50932,0.30051 -0.92605,0.59254 -0.92605,0.64854 0,0.056 0.41673,-0.0971 0.92605,-0.34003 0.50932,-0.24288 0.92604,-0.53437 0.92604,-0.64803 0,-0.0284 -0.0258,-0.0402 -0.0729,-0.0372 z m 1.03663,0.15606 c -0.0413,-0.004 -0.12892,0.0232 -0.2651,0.0754 -0.23886,0.0917 -0.43408,0.27312 -0.43408,0.40307 0,0.34024 0.15331,0.29221 0.53434,-0.16691 0.17475,-0.21056 0.23372,-0.30468 0.16484,-0.31161 z m 8.21501,0.18965 c -0.1893,0.002 -0.15682,0.10634 0.0816,0.26045 0.5083,0.32849 0.59989,0.32849 0.39688,0 -0.0899,-0.14552 -0.30521,-0.26245 -0.47852,-0.26045 z m -2.32183,0.0284 c -0.0919,-0.004 -0.19647,0.013 -0.29197,0.0512 -0.21107,0.0845 -0.14855,0.1475 0.15968,0.1602 0.27887,0.0115 0.43517,-0.0511 0.34727,-0.13901 -0.044,-0.0439 -0.12306,-0.0686 -0.21498,-0.0724 z m -2.88819,0.52607 c -0.26376,0 -0.52752,0.0152 -0.72761,0.0455 -0.40018,0.0606 -0.0727,0.11059 0.72761,0.11059 0.80041,0 1.12778,-0.05 0.7276,-0.11059 -0.20009,-0.0303 -0.46384,-0.0455 -0.7276,-0.0455 z m -2.40347,0.004 c -0.0919,-0.004 -0.19647,0.013 -0.29197,0.0512 -0.21107,0.0845 -0.14854,0.14698 0.15968,0.15968 0.27897,0.0115 0.43516,-0.0511 0.34726,-0.13901 -0.044,-0.0439 -0.12306,-0.068 -0.21497,-0.0718 z m -1.28778,0.27181 c -0.13378,-0.004 -0.33429,0.003 -0.601,0.0222 -0.52137,0.0384 -0.89277,0.15955 -0.82527,0.26923 0.0675,0.1096 0.44331,0.12274 0.83458,0.0289 0.79609,-0.19078 0.99302,-0.30722 0.59169,-0.3204 z m -2.79104,0.23255 c -0.14552,0 -0.086,0.11525 0.13229,0.25631 0.21828,0.14107 0.51594,0.25684 0.66146,0.25684 0.14552,0 0.086,-0.11577 -0.1323,-0.25684 -0.21828,-0.14106 -0.51593,-0.25631 -0.66145,-0.25631 z m 9.525,0 c -0.14552,0 -0.086,0.11525 0.13229,0.25631 0.21828,0.14107 0.51594,0.25684 0.66146,0.25684 0.14552,0 0.086,-0.11577 -0.1323,-0.25684 -0.21828,-0.14106 -0.51593,-0.25631 -0.66145,-0.25631 z m 1.99987,0.25631 c -0.15411,0 -0.28008,0.11907 -0.28008,0.26459 0,0.14552 0.0526,0.26458 0.11679,0.26458 0.0642,0 0.19018,-0.11906 0.28008,-0.26458 0.0899,-0.14552 0.0373,-0.26459 -0.11679,-0.26459 z m -11.62616,0.26459 c -0.14552,0 -0.33798,0.11906 -0.42788,0.26458 -0.0899,0.14552 -0.0442,0.26458 0.10129,0.26458 0.14552,0 0.33798,-0.11906 0.42788,-0.26458 0.0899,-0.14552 0.0442,-0.26458 -0.10129,-0.26458 z m -1.02784,0.32608 c -0.14602,0.0235 -0.38221,0.18353 -0.60358,0.42116 -0.43082,0.46243 -0.45658,0.57567 -0.12971,0.57567 0.22395,0 0.40721,-0.17859 0.40721,-0.39687 0,-0.21828 0.13874,-0.39688 0.30851,-0.39688 0.1698,0 0.2282,-0.0802 0.1297,-0.1788 -0.0246,-0.0246 -0.0635,-0.0321 -0.11213,-0.0243 z m 12.3734,0.4687 c -0.008,0.0188 0.0709,0.12486 0.23151,0.3297 0.4328,0.55186 0.47591,0.55977 0.72192,0.13229 0.10467,-0.18189 0.0927,-0.24224 -0.0264,-0.13436 -0.11908,0.10788 -0.40602,0.0483 -0.63769,-0.13229 -0.18635,-0.1453 -0.28129,-0.2141 -0.28939,-0.19534 z m 3.60185,0.0899 c -0.0949,-0.016 -0.16175,0.0426 -0.16175,0.15813 0,0.1541 0.11906,0.28008 0.26458,0.28008 0.14552,0 0.26459,-0.0521 0.26459,-0.11627 0,-0.0642 -0.11907,-0.1907 -0.26459,-0.2806 -0.0364,-0.0225 -0.0712,-0.036 -0.10283,-0.0413 z m 1.13895,0.45682 c -0.73195,-0.0325 -0.80392,0.32934 -0.18294,0.91932 0.38195,0.36289 0.66805,0.46963 0.7829,0.29249 0.26534,-0.40926 3.4e-4,-0.69865 -0.65939,-0.71985 -0.55886,-0.0179 -0.56082,-0.0267 -0.0506,-0.24598 0.38919,-0.16729 0.41817,-0.23228 0.11007,-0.24598 z m -3.5202,0.33693 c -0.0949,-0.016 -0.16175,0.0425 -0.16175,0.15813 0,0.1541 0.11906,0.28008 0.26458,0.28008 0.14552,0 0.26459,-0.0521 0.26459,-0.11627 0,-0.0642 -0.11907,-0.1907 -0.26459,-0.2806 -0.0364,-0.0225 -0.0712,-0.036 -0.10283,-0.0413 z m -15.630567,0.54363 c -0.0806,0.0192 -0.18228,0.15054 -0.25683,0.34624 -0.14359,0.37709 -0.11352,0.40767 0.14779,0.14831 0.18082,-0.17948 0.26237,-0.39289 0.18087,-0.47439 -0.0204,-0.0204 -0.045,-0.0265 -0.0718,-0.0202 z m 21.000267,0.22221 c -0.21319,-0.0167 -0.20097,0.0387 0.0119,0.1788 0.21134,0.13908 0.47922,0.19376 0.59531,0.12196 0.11607,-0.0718 0.21136,0.003 0.21136,0.16536 0,0.1627 0.11051,0.22736 0.24598,0.14366 0.13546,-0.0837 0.3215,-0.0311 0.4129,0.11679 0.20522,0.33203 0.39945,0.34786 0.39945,0.0326 0,-0.26987 -0.62392,-0.55222 -1.5875,-0.71882 -0.12214,-0.0211 -0.21832,-0.0347 -0.28938,-0.0403 z m 0.62425,0.88367 c -0.16729,-0.0131 -0.24871,0.0375 -0.18759,0.13643 0.0815,0.13194 0.32,0.23977 0.52969,0.23977 0.54763,0 0.46948,-0.1795 -0.14832,-0.34106 -0.0728,-0.019 -0.13802,-0.0308 -0.19378,-0.0351 z m -17.16536,1.97611 c 1.86925,0.0103 4.59588,0.31939 6.37945,0.77256 4.58147,1.16408 7.97753,3.61018 9.64489,6.94686 1.21825,2.43794 1.04998,4.02578 -0.51159,4.8333 -0.42502,0.21979 -0.86808,0.39978 -0.98444,0.39997 -0.1159,2e-4 -0.17171,-0.6315 -0.12351,-1.40404 0.0522,-0.83664 -0.0699,-1.77313 -0.30127,-2.31563 -0.37576,-0.88096 -0.38349,-0.84388 -0.24753,1.13947 0.099,1.44494 0.0511,2.05052 -0.16226,2.05052 -0.1745,0 -0.30283,-0.42802 -0.30283,-1.01079 0,-1.31624 -0.63496,-3.15026 -1.4366,-4.14858 l -0.63769,-0.79375 0.47542,1.4552 c 0.58704,1.79763 0.90431,4.06165 0.53744,3.83491 -0.14376,-0.0889 -0.26149,-0.4404 -0.26149,-0.78083 0,-1.07145 -2.28033,-5.22251 -3.61838,-6.58668 -2.85337,-2.90907 -5.34098,-3.9943 -8.75089,-3.81837 -2.24322,0.11573 -2.93428,-0.15658 -1.21543,-0.47904 0.36589,-0.0686 0.89362,-0.0985 1.51671,-0.0951 z m -0.0212,1.43453 c 1.46277,0.0194 2.93125,0.21827 3.95376,0.62787 1.88555,0.75532 3.8896,2.31413 5.08341,3.95428 1.49293,2.0511 2.72583,6.96411 1.83348,7.30653 -0.20283,0.0778 -0.36683,0.29412 -0.36483,0.48059 0.003,0.2371 0.0811,0.22015 0.26045,-0.0574 0.22564,-0.34916 0.25645,-0.34738 0.26045,0.0155 0.002,0.22685 -0.1567,0.63266 -0.35347,0.90175 -0.32343,0.44233 -0.37609,0.36426 -0.54932,-0.80977 -0.1054,-0.71422 -0.19499,-1.56195 -0.19999,-1.88412 -0.008,-0.58864 -0.4449,-0.70085 -0.80718,-0.20774 -0.10695,0.14552 -0.19806,0.80036 -0.20206,1.45521 -0.01,1.47636 -0.24932,2.42192 -0.56431,2.22725 -0.13134,-0.0812 -0.18238,-0.23812 -0.11368,-0.34933 0.0687,-0.11121 -0.0431,-0.20257 -0.24857,-0.20257 -0.2055,0 -0.32706,0.0751 -0.27026,0.16691 0.0567,0.0918 -0.006,0.34006 -0.14005,0.55139 -0.19863,0.31389 -0.24401,0.29441 -0.24701,-0.10697 -0.003,-0.31183 -0.13983,-0.43963 -0.37517,-0.34933 -0.22734,0.0872 -0.4336,-0.0808 -0.5333,-0.4346 -0.15018,-0.53296 -0.18374,-0.54134 -0.43925,-0.10852 -0.15214,0.25769 -0.38701,0.40069 -0.52193,0.31729 -0.1369,-0.0846 -0.168,0.049 -0.0708,0.30231 0.11741,0.30599 0.0743,0.39224 -0.13229,0.26458 -0.19572,-0.12093 -0.25317,-0.0507 -0.15917,0.1943 0.081,0.21112 0.02,0.46253 -0.13539,0.55863 -0.15544,0.0961 -0.28267,-0.0109 -0.28267,-0.23771 0,-0.48839 -0.70128,-0.558 -0.85886,-0.0853 -0.06,0.18003 -0.11606,-0.1474 -0.12506,-0.72761 -0.0134,-0.8866 0.0171,-0.94916 0.19276,-0.39325 0.12556,0.39747 0.21974,0.48484 0.23564,0.21962 0.0145,-0.24277 -0.0496,-0.63972 -0.14263,-0.88211 -0.13516,-0.35223 -0.21484,-0.3694 -0.39687,-0.0873 -0.18655,0.28901 -0.27914,0.28062 -0.51005,-0.0444 -0.22024,-0.31006 -0.24338,-0.2615 -0.10697,0.22118 0.1935,0.6847 -0.79612,2.01189 -1.27796,1.7141 -0.1468,-0.0908 -0.187,-0.0355 -0.0894,0.12248 0.0976,0.15795 0.0564,0.3618 -0.0915,0.4532 -0.14789,0.0914 -0.26872,0.0276 -0.26872,-0.14211 0,-0.17128 -0.18454,-0.23806 -0.41445,-0.14986 -0.3277,0.12574 -0.37599,0.035 -0.23202,-0.4346 0.10008,-0.32651 0.30095,-0.74259 0.44648,-0.92449 0.189,-0.23623 0.14713,-0.33073 -0.14676,-0.33073 -0.22629,0 -0.48076,0.21929 -0.56586,0.48731 -0.0851,0.26803 -0.42077,0.73102 -0.74569,1.02836 -0.32492,0.29733 -0.82879,0.60779 -1.11983,0.69039 -0.76855,0.2181 -2.10601,-0.44601 -2.807057,-1.39423 l -0.60823,-0.82268 -0.33332,0.60099 c -0.3328,0.5994 -0.33413,0.59891 -0.34313,-0.13539 -0.0117,-0.92174 -0.58761,-2.32857 -1.14153,-2.78794 -0.37867,-0.31402 -0.40515,-0.19779 -0.26458,1.16427 0.13129,1.27201 0.079,1.56893 -0.3266,1.86552 -0.60496,0.44235 -1.18701,0.0358 -1.18701,-0.82889 0,-0.32816 -0.16861,-0.73644 -0.37465,-0.90744 -0.29843,-0.24767 -0.40785,-0.20541 -0.53898,0.20774 -0.0905,0.28526 -0.33917,0.58554 -0.55191,0.66714 -0.28582,0.10968 -0.38654,-0.0568 -0.38654,-0.63717 0,-0.92681 -0.38503,-1.03724 -0.66301,-0.19017 -0.15237,0.46431 -0.23744,0.27397 -0.38654,-0.8661 -0.17911,-1.36959 -0.71337,-2.81664 -0.95188,-2.57813 -0.0585,0.0585 0.009,0.5086 0.15038,1.00045 0.53986,1.88239 -1.18539,2.7605 -3.1135,1.58492 -1.06896,-0.65175 -1.78749,-2.06311 -1.5441,-3.03289 0.2107,-0.83947 1.273,-1.35249 3.35536,-1.62006 0.7884,-0.10131 1.90975,-0.40349 2.49183,-0.67128 3.30482,-1.52041 6.25436,-1.9609 7.794877,-1.16427 0.89716,0.46393 1.76594,1.51185 2.28668,2.75798 0.53634,1.28344 0.72006,0.86459 0.22996,-0.52452 -0.73091,-2.07162 -2.83012,-3.6835 -4.797637,-3.6835 -0.7267,0 -0.91132,-0.0778 -0.69505,-0.29404 0.46231,-0.4623 2.557997,-0.59476 3.660237,-0.23099 1.38484,0.45704 3.2542,2.25053 3.99407,3.83233 0.56846,1.21526 0.61847,1.25832 0.61547,0.52916 -0.004,-1.08391 -0.80263,-2.75393 -1.78542,-3.73672 -1.18318,-1.18318 -2.62832,-1.80836 -4.19199,-1.81436 -0.995127,-0.004 -1.320727,-0.0957 -1.224727,-0.34572 0.31523,-0.82148 2.737437,-1.28759 5.175387,-1.25522 z m 9.11107,5.26583 c -0.0968,-0.0227 -0.20446,0.0608 -0.38085,0.2372 -0.33263,0.33265 -0.34167,0.49835 -0.0553,1.02319 0.18791,0.3444 0.32681,0.98299 0.30851,1.41955 l -0.0336,0.79375 0.21549,-0.79375 c 0.20608,-0.75939 0.21812,-0.76512 0.27802,-0.13229 0.0591,0.62443 0.0731,0.61703 0.24805,-0.13229 0.1019,-0.43656 0.0729,-0.94258 -0.0641,-1.12448 -0.1369,-0.1819 -0.17063,-0.33073 -0.0749,-0.33073 0.0957,0 0.0393,-0.25164 -0.12558,-0.55966 -0.1332,-0.2489 -0.21899,-0.37783 -0.31574,-0.40049 z m 0.0119,0.19999 c 0.0449,-0.008 0.0715,0.0468 0.0847,0.16485 0.0655,0.58358 0.10733,0.72117 0.32142,1.05833 0.11808,0.18597 0.0914,0.33073 -0.061,0.33073 -0.44168,0 -0.80919,-0.91061 -0.53951,-1.33687 0.0864,-0.13656 0.14942,-0.2087 0.19431,-0.21704 z m 1.46916,3.52072 c -0.0802,0.0115 -0.20121,0.37295 -0.26872,0.9896 -0.0507,0.463 -0.008,0.75795 0.0946,0.65526 0.10269,-0.10268 0.21166,-0.54922 0.24236,-0.99219 0.0318,-0.45888 -0.006,-0.66165 -0.0682,-0.65267 z m -1.34514,0.25218 c -0.0698,0.0132 -0.13233,0.0524 -0.17053,0.1142 -0.0764,0.12364 0.0341,0.22479 0.24598,0.22479 0.44614,0 0.48518,-0.0837 0.13901,-0.29765 -0.0677,-0.0419 -0.14463,-0.0545 -0.21446,-0.0413 z m -2.02313,0.25321 c -0.0949,-0.016 -0.16175,0.0426 -0.16175,0.15813 0,0.15411 0.11906,0.28009 0.26458,0.28009 0.14552,0 0.26459,-0.0521 0.26459,-0.11627 0,-0.0642 -0.11907,-0.19071 -0.26459,-0.28061 -0.0364,-0.0225 -0.0712,-0.036 -0.10283,-0.0413 z m 1.28467,1.26246 c -0.13489,0 -0.42128,0.0778 -0.78496,0.23409 -0.34892,0.14993 -0.39398,0.23236 -0.13229,0.24236 0.21828,0.008 0.57547,-0.1013 0.79375,-0.24236 0.24182,-0.15628 0.2584,-0.23409 0.1235,-0.23409 z m -5.49682,0.23822 c -0.1893,0.002 -0.15682,0.10634 0.0816,0.26045 0.50829,0.32849 0.5999,0.32849 0.39688,0 -0.0899,-0.14552 -0.30522,-0.26245 -0.47853,-0.26045 z m 3.5233,5.2e-4 c -0.0101,-0.0223 -0.11864,0.0584 -0.33279,0.22634 -0.25466,0.19972 -0.46303,0.48729 -0.46303,0.63924 0,0.15194 0.0337,0.227 0.0749,0.1664 0.0412,-0.0606 0.24954,-0.34871 0.46302,-0.63975 0.1795,-0.24474 0.26793,-0.36992 0.25786,-0.39223 z m 3.86385,0.0863 c -0.0949,-0.016 -0.16175,0.0426 -0.16175,0.15813 0,0.15411 0.11906,0.28009 0.26458,0.28009 0.14552,0 0.26459,-0.0521 0.26459,-0.11627 0,-0.0642 -0.11907,-0.19071 -0.26459,-0.28061 -0.0364,-0.0225 -0.0712,-0.036 -0.10283,-0.0413 z m -11.32592,0.46664 c -0.24654,-0.0155 -0.78233,0.26234 -1.19063,0.61753 -0.68551,0.59634 -0.69858,0.6427 -0.1757,0.6072 0.31144,-0.0211 0.51627,-0.16816 0.45527,-0.32711 -0.061,-0.15894 0.21985,-0.41968 0.62425,-0.57929 0.45969,-0.18144 0.56705,-0.30073 0.28681,-0.31833 z m 0.76377,0.24029 c -0.1893,0.002 -0.15682,0.10634 0.0816,0.26045 0.50829,0.32849 0.5999,0.32849 0.39688,0 -0.0899,-0.14552 -0.30522,-0.26245 -0.47853,-0.26045 z m 1.97043,1.0542 c -0.12535,0 -0.17079,0.29766 -0.10129,0.66146 0.13516,0.70702 0.44398,0.85342 0.75137,0.35605 0.11697,-0.18927 0.0725,-0.23376 -0.11678,-0.11679 -0.19312,0.11935 -0.30541,-0.0111 -0.30541,-0.35553 0,-0.29963 -0.10256,-0.54519 -0.22789,-0.54519 z m -2.66703,0.26459 c -0.15411,0 -0.28008,0.11906 -0.28008,0.26458 0,0.14552 0.0526,0.26458 0.11679,0.26458 0.0642,0 0.19018,-0.11906 0.28008,-0.26458 0.0899,-0.14552 0.0373,-0.26458 -0.11679,-0.26458 z m 0.86765,0.10077 c -0.0238,-6e-4 -0.055,0.0104 -0.0925,0.0336 -0.14386,0.0889 -0.26148,0.27388 -0.26148,0.41082 0,0.38058 0.18946,0.29663 0.36535,-0.16174 0.0678,-0.17661 0.0601,-0.28088 -0.0114,-0.28267 z m -4.225577,0.27285 c -0.06,-0.0207 -0.0971,0.007 -0.0971,0.0899 0,0.16508 0.264657,0.48557 0.588077,0.71211 0.32342,0.22653 0.71036,0.40811 0.85989,0.40411 0.14952,-0.004 0.0337,-0.13847 -0.25735,-0.29766 -0.29104,-0.15919 -0.67799,-0.47583 -0.85989,-0.70383 -0.0909,-0.11401 -0.17364,-0.18391 -0.233577,-0.20464 z m 1.058327,0.0109 c -0.61356,-0.0115 -0.63074,0.0165 -0.20102,0.33073 0.56269,0.41143 0.72185,0.43629 0.50075,0.0786 -0.0899,-0.14552 -0.0614,-0.26459 0.0636,-0.26459 0.12501,0 0.37005,0.11907 0.54467,0.26459 0.23519,0.19602 0.24602,0.17882 0.0403,-0.0661 -0.15275,-0.1819 -0.57955,-0.33613 -0.94827,-0.34313 z m 1.93787,0.41341 c -0.1893,0.002 -0.15681,0.10634 0.0817,0.26045 0.42617,0.27541 0.26463,0.3389 -0.8537,0.3359 -0.25137,-7.2e-4 -0.40571,0.0824 -0.34261,0.18448 0.16963,0.27447 1.01528,0.23994 1.39165,-0.0568 0.36939,-0.29129 0.20167,-0.72999 -0.27699,-0.72399 z"
       inkscape:export-filename="croissant.svg"
       inkscape:export-xdpi="96"
       inkscape:export-ydpi="96" /></g></svg>
