<?xml version="1.0" encoding="UTF-8" standalone="no"?>
<!-- Created with Inkscape (http://www.inkscape.org/) -->

<svg
   width="591.99805mm"
   height="1015.7354mm"
   viewBox="0 0 591.99805 1015.7354"
   version="1.1"
   id="svg5"
   xml:space="preserve"
   xmlns="http://www.w3.org/2000/svg"
   xmlns:svg="http://www.w3.org/2000/svg"><defs
     id="defs2" /><g
     id="layer1"
     transform="translate(2895.7877,443.12017)"><path
       style="fill:#000000;stroke-width:0.264583"
       d="m -2676.7884,206.31518 c 0,-201.464984 -0.089,-366.35027 -0.1984,-366.41173 -0.1092,-0.0615 -8.4138,0.88257 -18.4547,2.09785 -19.295,2.33532 -34.5965,4.1841 -54.3719,6.56937 -6.6212,0.79865 -23.8852,2.88227 -38.3646,4.63026 -14.4793,1.74802 -44.1259,5.31982 -65.8812,7.93737 -21.7554,2.61752 -40.0848,4.83304 -40.7321,4.92334 -1.1121,0.15518 -1.1557,0.13766 -0.7937,-0.31856 0.3492,-0.44011 17.1674,-18.04471 47.3572,-49.57162 6.3404,-6.6212 21.0415,-21.98026 32.6692,-34.13125 11.6276,-12.15099 35.6717,-37.27148 53.4312,-55.82329 17.7595,-18.55182 40.3268,-42.12648 50.1494,-52.38814 9.8227,-10.26165 39.0292,-40.77312 64.9035,-67.80326 25.8742,-27.03014 47.1504,-49.14571 47.2804,-49.14571 0.13,0 28.0136,29.02148 61.9635,64.49218 33.9499,35.4707 67.0311,70.02859 73.5138,76.79531 16.7188,17.45139 56.0558,58.54959 80.2788,83.87299 11.3446,11.8599 23.2009,24.24237 26.3474,27.51659 22.0985,22.99547 53.9848,56.42435 53.9008,56.50836 -0.1037,0.10371 -2.9255,-0.23225 -79.0465,-9.41134 -24.2292,-2.92166 -52.3875,-6.31568 -62.574,-7.54224 -10.1864,-1.22653 -27.4505,-3.30787 -38.3646,-4.62518 -10.914,-1.3173 -23.8323,-2.86927 -28.7072,-3.44884 -4.875,-0.57957 -9.191,-1.1103 -9.5912,-1.17941 l -0.7276,-0.12562 v 133.724642 c 0,88.86436 -0.089,133.779488 -0.2646,133.888158 -0.176,0.10882 -0.2646,77.96664 -0.2646,232.71664 v 232.55312 h -76.7291 -76.7292 z"
       id="path302" /></g></svg>
